<svg xmlns="http://www.w3.org/2000/svg" viewBox="0 0 200 220" width="200" height="220">
    <defs>
          <linearGradient id="flameGrad" x1="0%" y1="100%" x2="0%" y2="0%">
                  <stop offset="0%" stop-color="#E86C2C"/>
                  <stop offset="50%" stop-color="#FF8C42"/>
                  <stop offset="100%" stop-color="#FFB17A"/>
          </linearGradient>
          <linearGradient id="swordGrad" x1="0%" y1="0%" x2="100%" y2="100%">
                  <stop offset="0%" stop-color="#C0C0C0"/>
                  <stop offset="50%" stop-color="#E8E8E8"/>
                  <stop offset="100%" stop-color="#A0A0A0"/>
          </linearGradient>
          <linearGradient id="bannerGrad" x1="0%" y1="0%" x2="0%" y2="100%">
                  <stop offset="0%" stop-color="#2A2A35"/>
                  <stop offset="100%" stop-color="#1A1A22"/>
          </linearGradient>
          <linearGradient id="goldGrad" x1="0%" y1="0%" x2="100%" y2="100%">
                  <stop offset="0%" stop-color="#FFD700"/>
                  <stop offset="50%" stop-color="#FFA500"/>
                  <stop offset="100%" stop-color="#FF8C00"/>
          </linearGradient>
    </defs>
    <g transform="translate(100,85)">
          <g transform="rotate(-35)">
                  <rect x="-6" y="-70" width="12" height="100" rx="2" fill="url(#swordGrad)"/>
                  <rect x="-18" y="20" width="36" height="8" rx="2" fill="url(#goldGrad)"/>
                  <rect x="-4" y="28" width="8" height="16" rx="1" fill="#5A4A3A"/>
                  <circle cx="0" cy="-70" r="6" fill="url(#goldGrad)"/>
          </g>
          <g transform="rotate(35)">
                  <rect x="-6" y="-70" width="12" height="100" rx="2" fill="url(#swordGrad)"/>
                  <rect x="-18" y="20" width="36" height="8" rx="2" fill="url(#goldGrad)"/>
                  <rect x="-4" y="28" width="8" height="16" rx="1" fill="#5A4A3A"/>
                  <circle cx="0" cy="-70" r="6" fill="url(#goldGrad)"/>
          </g>
    </g>
    <g transform="translate(100,75)">
          <path d="M-25,20 Q-30,-10 -15,-35 Q-10,-15 -5,-40 Q5,-10 10,-50 Q15,-20 20,-35 Q30,0 25,20 Z" fill="url(#flameGrad)" opacity="0.9"/>
          <path d="M-15,20 Q-18,0 -8,-25 Q-2,0 5,-30 Q12,-5 18,-20 Q22,5 15,20 Z" fill="url(#flameGrad)"/>
    </g>
    <g transform="translate(100,95)">
          <ellipse cx="0" cy="15" rx="45" ry="22" fill="#8B4513"/>
          <ellipse cx="0" cy="22" rx="38" ry="12" fill="#A0522D"/>
          <ellipse cx="35" cy="32" rx="8" ry="12" fill="#8B4513"/>
          <ellipse cx="-35" cy="32" rx="8" ry="12" fill="#8B4513"/>
          <path d="M45,10 Q60,5 55,18 Q50,12 45,15" fill="#8B4513"/>
          <ellipse cx="-48" cy="5" rx="22" ry="18" fill="#8B4513"/>
          <ellipse cx="-68" cy="8" rx="14" ry="10" fill="#A0522D"/>
          <ellipse cx="-78" cy="6" rx="5" ry="4" fill="#2A2A2A"/>
          <ellipse cx="-52" cy="-2" rx="5" ry="6" fill="#1A1A1A"/>
          <ellipse cx="-53" cy="-3" rx="2" ry="2" fill="#FFFFFF"/>
          <ellipse cx="-35" cy="-8" rx="12" ry="18" fill="#6B3A10"/>
          <rect x="-30" y="25" width="10" height="20" rx="4" fill="#8B4513"/>
          <rect x="-10" y="25" width="10" height="20" rx="4" fill="#8B4513"/>
          <rect x="-42" y="18" width="18" height="6" rx="2" fill="url(#goldGrad)"/>
          <circle cx="-33" cy="24" r="4" fill="url(#goldGrad)"/>
    </g>
    <g transform="translate(100,175)">
          <path d="M-80,0 L-70,10 L-70,30 L-80,20 Z" fill="#1F1F28"/>
          <path d="M80,0 L70,10 L70,30 L80,20 Z" fill="#1F1F28"/>
          <path d="M-70,0 L-60,-8 L60,-8 L70,0 L70,28 L60,35 L-60,35 L-70,28 Z" fill="url(#bannerGrad)"/>
          <path d="M-70,0 L-60,-8 L60,-8 L70,0 L70,28 L60,35 L-60,35 L-70,28 Z" fill="none" stroke="url(#goldGrad)" stroke-width="2"/>
          <text x="0" y="18" text-anchor="middle" font-family="'Inter', 'Segoe UI', system-ui, sans-serif" font-size="18" font-weight="700" letter-spacing="3" fill="url(#goldGrad)">BLAZECRAFT</text>
    </g>
</svg>
